<svg xmlns="http://www.w3.org/2000/svg" viewBox="0 0 64 64">
  <defs>
    <linearGradient id="g" x1="0" y1="0" x2="1" y2="1">
      <stop offset="0" stop-color="#60a5fa"/>
      <stop offset="1" stop-color="#1e3a8a"/>
    </linearGradient>
  </defs>
  <rect x="4" y="4" width="56" height="56" rx="16" fill="url(#g)" stroke="#0b1f52" stroke-width="4"/>
  <path d="M20 15 C14 15 11 19 13 23 C14.5 26 17.5 27 20 27" fill="none" stroke="#0b1f52" stroke-width="3" stroke-linecap="round"/>
  <path d="M44 15 C50 15 53 19 51 23 C49.5 26 46.5 27 44 27" fill="none" stroke="#0b1f52" stroke-width="3" stroke-linecap="round"/>
  <path d="M20 14 H44 V23 C44 32 39 38 32 38 C25 38 20 32 20 23 Z" fill="#fff" stroke="#0b1f52" stroke-width="3" stroke-linejoin="round"/>
  <path d="M32 19 L34.2 23.6 L39 24.3 L35.5 27.8 L36.4 32.7 L32 30.4 L27.6 32.7 L28.5 27.8 L25 24.3 L29.8 23.6 Z" fill="#facc15" stroke="#a16207" stroke-width="1.6" stroke-linejoin="round"/>
  <rect x="29" y="38" width="6" height="6" fill="#facc15" stroke="#a16207" stroke-width="2"/>
  <rect x="21" y="44" width="22" height="7" rx="2.5" fill="#facc15" stroke="#a16207" stroke-width="2.5"/>
</svg>
